<?xml version="1.0" encoding="UTF-8" standalone="no"?>
<svg
    xmlns="http://www.w3.org/2000/svg"
    xmlns:svg="http://www.w3.org/2000/svg"
    width="32"
    height="20"
    viewBox="0 0 32 20">

    <rect x="8" y="0" width="24" height="20" fill="#003366"/>

    <g transform="translate(4,-1032.3622)">
      <path
         d="m 0,50 v -3 h 1 v -1 h 4 v 3 H 4 v 1 z"
         transform="translate(0,1002.3622)"
         fill="#000000"/>
      <path
         d="m 1,49 v -2 h 3 v 1 H 3 v 1 z"
         transform="translate(0,1002.3622)"
         fill="#999999"/>
    </g>
    <g transform="translate(4,-1032.3622)">
      <path
         d="m 6,50 v -2 h 4 v 1 H 9 v 1 z"
         transform="translate(0,1002.3622)"
         fill="#000000"/>
      <path
         d="m 7,48 h 2 v 1 H 7 Z"
         transform="translate(0,1002.3622)"
         fill="#999999"/>
    </g>
    <g transform="matrix(-1,0,0,1,29,-1032.3622)">
      <path
         d="m 6,50 v -2 h 4 v 1 H 9 v 1 z"
         transform="translate(0,1002.3622)"
         fill="#000000"/>
      <path
         d="m 7,48 h 2 v 1 H 7 Z"
         transform="translate(0,1002.3622)"
         fill="#999999"/>
    </g>
    <g transform="translate(0,-1032.3622)">
      <path
         d="m 24,49 v -1 h 4 v 1 h -1 v 1 h -2 v -1 z"
         transform="translate(0,1002.3622)"
         fill="#000000"/>
      <path
         d="m 25,48 h 2 v 1 h -2 z"
         transform="translate(0,1002.3622)"
         fill="#999999"/>
    </g>
    <g transform="translate(0,-1032.3622)">
      <path
         d="m 7,1033.3622 h 19 v 16 H 7 Z"
         fill="#ffcc99"/>
      <path
         d="m 8,1046.3622 v -10 h 1 v -1 h 1 v -1 h 13 v 1 h 1 v 1 h 1 v 10 h -1 v 1 h -1 v 1 H 10 v -1 H 9 v -1 z"
         fill="#ff99ff"/>
      <path
         d="m 22,1037.3622 h 1 v 1 h -1 z m -4,-2 h 1 v 1 h -1 z m -3,0 h 1 v 1 h -1 z m -1,4 h 1 v 1 h -1 z m 1,3 h 1 v 1 h -1 z m -2,3 h 1 v 1 h -1 z m -2,-4 h 1 v 1 h -1 z m -2,2 h 1 v 1 H 9 Z m 1,3 h 1 v 1 h -1 z m 0,-10 h 1 v 1 h -1 z"
         fill="#ff3399"/>
      <path
         d="m 8,1049.3622 h 17 v 1 H 8 Z m 0,-17 h 17 v 1 H 8 Z m 18,16 v -14 h 1 v 14 z m -20,0 v -14 h 1 v 14 z m 1,0 h 1 v 1 H 7 Z m 0,-15 h 1 v 1 H 7 Z m 18,0 h 1 v 1 h -1 z m 0,15 h 1 v 1 h -1 z"
         fill="#000000"/>
    </g>
    <g transform="translate(6)">
        <path
           d="m 11,15 v -5 h 1 V 6 h 2 v 1 h 1 v 1 h 1 v 1 h 4 V 8 h 1 V 7 h 1 V 6 h 2 v 4 h 1 v 5 h -1 v 1 h -1 v 1 H 13 v -1 h -1 v -1 z"
           fill="#999999"/>
        <path
           d="m 23,16 h 1 v 1 h -1 z m 1,-1 h 1 v 1 h -1 z m 1,-5 h 1 v 5 H 25 Z M 24,6 h 1 v 4 H 24 Z M 22,5 h 2 v 1 h -2 z m -6,3 h 4 V 9 H 16 Z M 12,5 h 2 v 1 h -2 z m -1,1 h 1 v 4 h -1 z m -1,4 h 1 v 5 H 10 Z M 21,6 h 1 v 1 h -1 z m -1,1 h 1 v 1 h -1 z m -5,0 h 1 V 8 H 15 Z M 14,6 h 1 v 1 h -1 z m -1,11 h 10 v 1 H 13 Z m -1,-1 h 1 v 1 h -1 z m -1,-1 h 1 v 1 h -1 z"
           fill="#000000"/>
        <path
           d="m 12,13 h 2 v 2 h -2 z"
           fill="#ff9999"/>
        <path
           d="m 23,13 h 2 v 2 h -2 z"
           fill="#ff9999"/>
        <path
           d="m 15,16 v -2 h 1 v 1 h 2 v -1 h 1 v 1 h 2 v -1 h 1 v 2 z"
           fill="#000000"/>
        <path
           d="m 19,12 h 1 v 1 h -1 z"
           fill="#000000"/>
        <path
            d="m 21,13 v -1 h 1 v -1 h 1 v 2 z"
            fill="#000000"/>
        <path
            d="m 21,11 h 1 v 1 h -1 z"
            fill="#ffffff"/>
        <g transform="translate(-7)">
          <path
             d="m 21,13 v -1 h 1 v -1 h 1 v 2 z"
             fill="#000000"/>
          <path
             d="m 21,11 h 1 v 1 h -1 z"
             fill="#ffffff"/>
        </g>
    </g>
    <path
        d="M 0,10 V 7 h 4 v 1 h 1 v 1 h 1 v 5 H 5 V 13 H 3 V 12 H 2 V 11 H 1 v -1 z"
        fill="#000000"/>
    <path
        d="M 1,9 V 8 h 2 v 1 h 1 v 1 h 1 v 1 h 1 v 1 H 4 V 11 H 3 V 10 H 2 V 9 Z"
        fill="#999999"/>

</svg>
